<?xml version="1.0" standalone="no"?>
<!DOCTYPE svg PUBLIC "-//W3C//DTD SVG 20010904//EN"
 "http://www.w3.org/TR/2001/REC-SVG-20010904/DTD/svg10.dtd">
<svg version="1.0" xmlns="http://www.w3.org/2000/svg"
 width="477.000000pt" height="601.000000pt" viewBox="0 0 477.000000 601.000000"
 preserveAspectRatio="xMidYMid meet">

<g transform="translate(0.000000,601.000000) scale(0.100000,-0.100000)"
fill="#000000" stroke="none">
<path d="M2161 5629 c-535 -56 -1051 -330 -1393 -739 -249 -297 -403 -627
-474 -1015 -25 -136 -30 -478 -10 -632 111 -844 710 -1532 1537 -1767 190 -54
326 -71 574 -70 248 0 326 9 540 64 723 186 1311 774 1505 1504 55 206 64 289
64 551 -1 269 -14 368 -78 591 -282 978 -1243 1619 -2265 1513z m1244 -592
c42 -42 54 -95 34 -151 -43 -122 -225 -111 -260 16 -14 52 2 98 47 138 30 26
43 30 90 30 50 0 60 -4 89 -33z m-1809 -42 c14 -9 34 -30 44 -48 64 -105 -45
-237 -164 -197 -112 37 -126 197 -23 250 48 24 102 22 143 -5z m1580 -198 c18
-19 36 -51 39 -71 12 -64 -19 -106 -252 -338 -190 -188 -223 -217 -258 -224
-50 -9 -111 12 -137 47 -27 36 -40 102 -27 136 11 30 389 417 454 465 35 26
46 29 94 25 47 -3 59 -9 87 -40z m-1373 -21 c18 -8 122 -104 231 -214 l199
-200 4 -54 c3 -40 -1 -60 -15 -84 -36 -56 -122 -80 -180 -50 -15 8 -116 104
-224 213 -222 224 -228 235 -189 317 16 32 33 50 64 65 50 25 67 26 110 7z
m-295 -190 c87 -45 103 -153 32 -221 -59 -56 -169 -42 -215 29 -21 32 -22 94
-1 135 33 62 121 90 184 57z m1891 -4 c66 -35 90 -125 51 -189 -74 -122 -250
-76 -250 65 0 111 103 175 199 124z m-2359 -19 c34 -19 70 -80 70 -117 0 -78
-60 -136 -141 -136 -129 0 -182 139 -89 232 33 33 44 38 85 38 26 0 60 -7 75
-17z m2788 -60 c33 -20 62 -73 62 -111 0 -47 -28 -101 -64 -124 -47 -29 -127
-21 -166 17 -43 41 -56 96 -35 151 19 50 31 62 82 79 42 15 86 10 121 -12z
m-2090 -147 c15 -8 80 -68 145 -134 l117 -119 0 -49 c0 -94 -61 -150 -153
-141 -47 4 -53 9 -164 118 -63 63 -121 126 -129 141 -57 108 76 241 184 184z
m1425 -3 c27 -7 68 -69 74 -111 7 -55 -10 -81 -136 -209 -123 -123 -154 -141
-219 -124 -83 23 -128 123 -88 199 8 15 64 76 124 135 127 126 149 136 245
110z m-1883 -28 c14 -7 120 -109 237 -227 173 -174 213 -221 223 -255 17 -55
7 -89 -39 -135 -34 -34 -44 -38 -88 -38 -67 0 -85 14 -329 261 -226 229 -239
248 -210 324 9 23 25 50 35 59 40 36 114 41 171 11z m2275 -35 c24 0 83 -59
95 -96 6 -19 9 -48 5 -64 -9 -42 -95 -138 -279 -312 -154 -146 -156 -148 -201
-148 -25 0 -59 7 -76 15 -61 32 -87 121 -55 183 8 15 100 112 203 215 186 184
240 226 281 212 8 -3 20 -5 27 -5z m-1873 -936 c60 -31 82 -109 49 -177 -25
-51 -373 -400 -415 -417 -56 -21 -103 -13 -145 26 -44 39 -57 76 -46 132 6 30
39 70 198 231 235 237 264 253 359 205z m1627 -66 c384 -369 401 -389 401
-453 0 -77 -70 -145 -148 -145 -39 0 -58 17 -325 280 -98 96 -185 187 -193
202 -40 76 3 174 86 195 61 16 97 0 179 -79z m-1392 -167 c50 -23 71 -53 79
-113 9 -61 -7 -86 -138 -214 -111 -110 -147 -129 -213 -114 -86 19 -129 112
-90 195 21 43 213 231 256 249 44 20 56 19 106 -3z m1073 -12 c14 -10 71 -64
128 -122 113 -113 129 -145 110 -214 -19 -68 -96 -116 -163 -99 -54 14 -261
217 -285 280 -7 19 -7 40 1 71 24 96 132 139 209 84z m-820 -244 c60 -31 88
-122 56 -183 -18 -32 -442 -455 -473 -471 -34 -17 -95 -13 -131 9 -43 26 -66
80 -59 139 5 42 15 54 223 263 121 121 233 229 249 239 36 23 95 25 135 4z
m586 -14 c73 -54 392 -385 399 -414 12 -48 -1 -107 -31 -138 -33 -35 -91 -54
-131 -45 -39 10 -439 409 -453 452 -8 23 -8 44 -1 72 26 95 137 133 217 73z
m-1665 -76 c97 -51 89 -198 -14 -249 -53 -25 -101 -15 -149 34 -34 33 -38 43
-38 86 0 61 16 92 59 121 40 27 98 30 142 8z m2788 -63 c65 -48 85 -129 47
-187 -75 -114 -256 -66 -256 68 0 113 122 183 209 119z m-2362 -17 c85 -56 81
-189 -8 -237 -76 -41 -158 -9 -193 75 -20 47 -20 47 0 95 33 81 130 113 201
67z m1890 -5 c86 -52 82 -183 -8 -232 -77 -43 -175 -2 -201 84 -15 51 11 122
56 149 41 25 111 25 153 -1z m-89 -410 c105 -48 102 -202 -4 -246 -45 -19 -83
-18 -123 4 -104 56 -88 218 25 252 43 13 55 11 102 -10z m-1787 -55 c97 -51
89 -198 -14 -249 -53 -25 -101 -15 -149 34 -37 37 -43 56 -38 120 6 84 119
137 201 95z"/>
<path d="M1225 1083 c-41 -10 -104 -59 -126 -96 -15 -28 -22 -57 -22 -101 -1
-107 39 -149 202 -210 52 -19 98 -39 104 -45 5 -5 7 -21 3 -35 -14 -55 -130
-56 -173 -2 -29 35 -45 36 -103 1 -61 -36 -67 -56 -29 -103 37 -48 96 -80 169
-92 84 -14 139 -7 204 28 94 51 131 161 84 251 -32 62 -78 95 -194 139 -80 30
-100 41 -102 59 -8 53 84 65 129 17 12 -13 29 -24 36 -24 26 0 123 62 123 79
0 29 -58 88 -112 115 -51 25 -133 33 -193 19z"/>
<path d="M587 1063 c-4 -3 -7 -149 -7 -323 0 -232 3 -319 12 -328 9 -9 68 -12
205 -12 l193 0 10 26 c13 33 13 90 0 115 -10 17 -22 19 -126 19 -112 0 -115 0
-126 25 -8 19 -8 31 0 50 11 24 15 25 100 25 57 0 95 5 106 13 22 16 33 96 17
126 -11 19 -20 21 -109 21 -104 0 -122 7 -122 46 0 44 22 52 127 50 126 -3
133 0 133 69 0 91 14 85 -209 85 -109 0 -201 -3 -204 -7z"/>
<path d="M1632 1058 c-9 -9 -12 -95 -12 -325 0 -309 0 -312 21 -324 22 -11
123 -8 135 4 4 3 8 45 9 92 1 48 7 91 13 97 5 5 45 14 88 19 61 7 88 15 119
37 86 60 121 154 94 249 -17 61 -89 137 -145 152 -55 15 -307 14 -322 -1z
m298 -163 c12 -11 20 -31 20 -50 0 -44 -29 -67 -90 -73 -67 -6 -80 6 -80 74 0
40 4 56 18 64 25 15 109 6 132 -15z"/>
<path d="M2177 1063 c-4 -3 -7 -151 -7 -329 l0 -322 23 -6 c38 -10 102 -7 120
7 13 9 17 32 19 107 l3 95 28 3 c37 4 49 -7 93 -86 20 -37 47 -81 60 -98 23
-31 24 -31 101 -29 43 1 81 3 85 4 11 2 0 27 -54 120 -65 113 -66 121 -29 164
60 68 75 144 46 226 -23 66 -54 101 -109 127 -47 22 -64 24 -212 24 -88 0
-164 -3 -167 -7z m329 -165 c21 -21 21 -85 0 -107 -13 -12 -36 -16 -94 -16
l-77 0 -3 59 c-5 88 -4 89 83 84 51 -2 80 -8 91 -20z"/>
<path d="M2770 1051 c-6 -12 -10 -134 -10 -326 l0 -305 26 -10 c14 -6 45 -10
69 -10 77 0 75 -8 75 335 0 167 -3 310 -6 319 -5 12 -21 16 -75 16 -57 0 -70
-3 -79 -19z"/>
<path d="M3006 1058 c-16 -49 -16 -92 -1 -114 13 -21 23 -24 73 -24 99 0 95 9
95 -257 -1 -126 3 -236 7 -243 10 -17 119 -25 140 -11 13 9 15 48 15 245 0
178 4 239 13 248 7 7 36 14 65 14 96 3 88 -4 85 77 l-3 72 -243 3 c-189 2
-243 0 -246 -10z"/>
<path d="M3556 1058 c4 -7 50 -78 102 -158 52 -80 95 -154 95 -165 0 -11 -36
-74 -79 -138 -108 -162 -108 -162 -101 -180 5 -13 20 -16 73 -16 37 1 78 5 90
10 13 4 48 46 78 94 31 47 62 85 70 85 8 0 35 -35 62 -77 71 -115 69 -113 174
-113 50 0 90 2 90 5 0 3 -45 74 -100 159 -55 84 -100 161 -100 171 0 10 43 84
95 164 52 81 95 153 95 159 0 8 -23 12 -73 12 -101 0 -129 -17 -182 -111 -27
-47 -49 -74 -60 -74 -10 0 -41 35 -79 90 l-61 90 -98 3 c-78 2 -97 0 -91 -10z"/>
</g>
</svg>
